<svg xmlns="http://www.w3.org/2000/svg" xmlns:xlink="http://www.w3.org/1999/xlink" width="24" height="24" viewBox="0 0 24 24">
    <defs>
        <path id="a" d="M0 0h14v14H0z"/>
        <path id="b" d="M5.93 5.93V1.465c0-.527.032-.774.18-1.005C6.309.165 6.606 0 7 0s.692.165.89.461c.148.23.18.478.18 1.005v4.463h4.464c.527 0 .774.033 1.005.182.296.197.461.494.461.889s-.165.692-.461.89c-.23.148-.478.18-1.005.18H8.071v4.464c0 .527-.033.774-.182 1.005-.197.296-.494.461-.889.461s-.692-.165-.89-.461c-.148-.23-.18-.478-.18-1.005V8.071H1.465c-.527 0-.774-.033-1.005-.182C.165 7.692 0 7.395 0 7s.165-.692.461-.89c.23-.148.478-.18 1.005-.18h4.463z"/>
    </defs>
    <g fill="none" fill-rule="evenodd" transform="translate(5 5)">
        <use fill="#8995B5" opacity=".65" transform="rotate(45 7 7)" xlink:href="#b"/>
    </g>
</svg>
